<svg id="Layer_1" data-name="Layer 1" xmlns="http://www.w3.org/2000/svg" viewBox="0 0 311.612 256.461">
  <g>
    <circle id="fullLogo" cx="155.806" cy="96.5528" r="63.5528" style="fill: #ed1a3b"/>
    <path id="fullLogo-2" data-name="fullLogo" d="M153.2456,88.4972a2.8365,2.8365,0,0,1,5.1208,0l6.1893,12.981,6.8152,14.2939a2.8366,2.8366,0,0,1-2.56,4.0573h-26.009a2.8366,2.8366,0,0,1-2.56-4.0573l6.8152-14.2939Z" style="fill: #fff"/>
    <rect id="fullLogo-3" data-name="fullLogo" x="133.7836" y="73.2763" width="44.0449" height="8.0655" rx="2.8541" style="fill: #fff"/>
    <path id="fullLogo-4" data-name="fullLogo" d="M214.7494,219.8376a12.1661,12.1661,0,0,1-8.12,3.3179,4.8255,4.8255,0,0,1-5.1952-5.1513V203.99H197.81v-2.0083h5.8939v15.4547c0,2.226,1.0913,3.6669,3.3615,3.6669,2.445,0,5.4136-1.4844,7.6838-3.7982V203.99h-3.6237v-2.0083H217.02v18.9032h3.5363V222.85h-5.8065Z" style="fill: #ed1a3b"/>
    <path id="fullLogo-5" data-name="fullLogo" d="M239.7234,222.85v-4.06h-.0875a8.97,8.97,0,0,1-7.9457,4.3656c-5.85,0-10.1721-4.5839-10.1721-10.783,0-6.2867,4.3221-10.9578,10.0411-10.9578a9.0647,9.0647,0,0,1,8.0767,4.7581h.0875V194.91h-4.0166v-2.0082h6.2868v27.984h3.7543V222.85Zm-8.12-19.5149c-4.453,0-7.9457,3.8853-7.9457,8.9938s3.4488,8.95,8.0328,8.95c4.7588,0,8.0767-3.7111,8.0767-8.9495C239.7669,207.2205,236.2306,203.3352,231.6031,203.3352Z" style="fill: #ed1a3b"/>
    <path id="fullLogo-6" data-name="fullLogo" d="M247.5706,220.8853h3.6237V203.99h-3.6237v-2.0083h5.8939v18.9032h3.5363V222.85h-9.43Zm4.104-28.4643a1.7894,1.7894,0,0,1,1.79,1.7463,1.8361,1.8361,0,0,1-1.79,1.8335,1.8,1.8,0,0,1-1.7464-1.8335A1.7513,1.7513,0,0,1,251.6746,192.421Z" style="fill: #ed1a3b"/>
    <path id="fullLogo-7" data-name="fullLogo" d="M268.309,201.4147c5.85,0,10.303,4.7581,10.303,11.0449,0,6.2433-4.453,11.0014-10.303,11.0014s-10.26-4.7581-10.26-11.0014C258.05,206.1728,262.4589,201.4147,268.309,201.4147Zm0,19.9945c4.5839,0,7.9892-3.7982,7.9892-8.95,0-5.1949-3.4053-8.9495-7.9892-8.9495s-7.9458,3.7546-7.9458,8.95C260.3632,217.611,263.725,221.4092,268.309,221.4092Z" style="fill: #ed1a3b"/>
    <path id="fullLogo-8" data-name="fullLogo" d="M39.5048,220.8853h4.06V194.91H35.0083v7.4216H33v-9.43H56.5746v9.43H54.5667V194.91H46.01v25.9758h4.06V222.85H39.5048Z" style="fill: #ed1a3b"/>
    <path id="fullLogo-9" data-name="fullLogo" d="M58.9868,212.94a8.6821,8.6821,0,0,0,8.6876,8.6876,9.8331,9.8331,0,0,0,8.0767-4.54l1.79.83a11.5666,11.5666,0,0,1-10.1285,5.5439c-6.2429,0-10.6959-4.584-10.6959-11.0014,0-6.4609,4.3656-11.0449,10.5214-11.0449,6.0681,0,10.1721,4.54,10.303,11.5252Zm16.1966-2.0083c-.7857-4.8023-3.7982-7.5528-8.12-7.5528-4.2346,0-7.2471,2.8382-8.0328,7.5528Z" style="fill: #ed1a3b"/>
    <path id="fullLogo-10" data-name="fullLogo" d="M78.8831,220.8853h2.7941l6.6358-8.7747-6.4174-8.12H79.2325v-2.0083H86.916V203.99H84.4713l5.1078,6.4609L94.6,203.99H92.3731v-2.0083H99.97V203.99H97.1754l-6.2864,8.12,7.0287,8.7747h2.62V222.85H92.8534v-1.9648h2.5321l-5.8064-7.2032-5.37,7.2032H86.916V222.85H78.8831Z" style="fill: #ed1a3b"/>
    <path id="fullLogo-11" data-name="fullLogo" d="M101.8837,203.99v-2.0083h3.6672V197.31l2.27-1.79v6.4616h4.3221V203.99h-4.3221V218.528c0,1.6593.2181,2.707,1.8773,2.7505a10.6164,10.6164,0,0,0,2.4448-.3932V222.85a11.0129,11.0129,0,0,1-2.9251.48c-2.27,0-3.6672-1.179-3.6672-3.8418V203.99Z" style="fill: #ed1a3b"/>
    <path id="fullLogo-12" data-name="fullLogo" d="M114.27,220.8853h3.6237V203.99H114.27v-2.0083h5.8939v18.9032H123.7V222.85h-9.43Zm4.104-28.4643a1.7894,1.7894,0,0,1,1.79,1.7463,1.8361,1.8361,0,0,1-1.79,1.8335,1.8,1.8,0,0,1-1.7464-1.8335A1.7513,1.7513,0,0,1,118.374,192.421Z" style="fill: #ed1a3b"/>
    <path id="fullLogo-13" data-name="fullLogo" d="M125.29,220.8853h3.7108V194.91h-3.7543v-2.0082h6.0245v27.984h3.7108V222.85H125.29Z" style="fill: #ed1a3b"/>
    <path id="fullLogo-14" data-name="fullLogo" d="M138.1085,212.94a8.6821,8.6821,0,0,0,8.6877,8.6876,9.8334,9.8334,0,0,0,8.0767-4.54l1.79.83a11.5669,11.5669,0,0,1-10.1286,5.5439c-6.2429,0-10.6959-4.584-10.6959-11.0014,0-6.4609,4.3656-11.0449,10.5214-11.0449,6.0681,0,10.1721,4.54,10.3031,11.5252Zm16.1966-2.0083c-.7857-4.8023-3.7982-7.5528-8.12-7.5528-4.2346,0-7.247,2.8382-8.0328,7.5528Z" style="fill: #ed1a3b"/>
    <path id="fullLogo-15" data-name="fullLogo" d="M183.59,194.3422h-.3055l-9.037,26.5431h3.8853V222.85H168.0917v-1.9648h3.7547l8.906-25.9758h-3.7108v-2.0082h12.7477V194.91h-3.7108l9.037,25.9758h3.6672V222.85H188.96v-1.9648h3.7111Z" style="fill: #ed1a3b"/>
    <path id="fullLogo-16" data-name="fullLogo" d="M183.4155,212.7962a1.7894,1.7894,0,0,1,1.79,1.7463,1.8362,1.8362,0,0,1-1.79,1.8335,1.8,1.8,0,0,1-1.7464-1.8335A1.7513,1.7513,0,0,1,183.4155,212.7962Z" style="fill: #ed1a3b"/>
  </g>
</svg>
